<svg width="46" height="46" viewBox="0 0 46 46" fill="none" xmlns="http://www.w3.org/2000/svg">
<path opacity="0.4" d="M20.6563 5.20737C21.95 4.10112 24.0688 4.10112 25.3813 5.20737L28.3438 7.75737C28.9063 8.24487 29.9563 8.63862 30.7063 8.63862H33.8938C35.8813 8.63862 37.5125 10.2699 37.5125 12.2574V15.4449C37.5125 16.1761 37.9063 17.2449 38.3938 17.8074L40.9438 20.7699C42.05 22.0636 42.05 24.1824 40.9438 25.4949L38.3938 28.4574C37.9063 29.0199 37.5125 30.0699 37.5125 30.8199V34.0074C37.5125 35.9949 35.8813 37.6261 33.8938 37.6261H30.7063C29.975 37.6261 28.9063 38.0199 28.3438 38.5074L25.3813 41.0574C24.0875 42.1636 21.9688 42.1636 20.6563 41.0574L17.6938 38.5074C17.1313 38.0199 16.0813 37.6261 15.3313 37.6261H12.0875C10.1 37.6261 8.46877 35.9949 8.46877 34.0074V30.8011C8.46877 30.0699 8.07502 29.0199 7.60627 28.4574L5.07502 25.4761C3.98752 24.1824 3.98752 22.0824 5.07502 20.7886L7.60627 17.8074C8.07502 17.2449 8.46877 16.1949 8.46877 15.4636V12.2386C8.46877 10.2511 10.1 8.61987 12.0875 8.61987H15.3313C16.0625 8.61987 17.1313 8.22612 17.6938 7.73862L20.6563 5.20737Z" fill="#0099A8"/>
<path d="M20.7313 29.0574C20.3563 29.0574 20 28.9074 19.7375 28.6449L15.2 24.1074C14.6563 23.5637 14.6563 22.6637 15.2 22.1199C15.7438 21.5762 16.6438 21.5762 17.1875 22.1199L20.7313 25.6637L28.7938 17.6012C29.3376 17.0574 30.2375 17.0574 30.7813 17.6012C31.325 18.1449 31.325 19.0449 30.7813 19.5887L21.725 28.6449C21.4625 28.9074 21.1063 29.0574 20.7313 29.0574Z" fill="#0099A8"/>
</svg>
