<svg width="31" height="30" viewBox="0 0 31 30" fill="none" xmlns="http://www.w3.org/2000/svg">
<path fill-rule="evenodd" clip-rule="evenodd" d="M10.4527 11.1781H6.78456V22.9916H10.4527V11.1781ZM10.7528 7.43619C10.7528 6.26167 9.79823 5.30566 8.62552 5.30566C7.446 5.30566 6.49829 6.26167 6.49829 7.43619C6.49829 8.6107 7.446 9.56671 8.62552 9.56671C9.79823 9.56671 10.7528 8.6107 10.7528 7.43619ZM16.2692 11.1783H12.7647V22.9917H16.426V17.1465C16.426 15.6101 16.7123 14.1146 18.6214 14.1146C20.5032 14.1146 20.5236 15.8764 20.5236 17.2489V22.9917H24.185V16.5182C24.185 13.3361 23.4963 10.8915 19.7873 10.8915C18.0009 10.8915 16.8078 11.868 16.317 12.7966H16.2692V11.1783Z" fill="#0099A8"/>
</svg>
