<svg width="30" height="30" viewBox="0 0 30 30" fill="none" xmlns="http://www.w3.org/2000/svg">
<path fill-rule="evenodd" clip-rule="evenodd" d="M23.4532 8.49866C24.0102 9.13688 24.2068 10.5813 24.2068 10.5813C24.2068 10.5813 24.4033 12.2945 24.4033 14.0076V15.5865C24.4033 17.2661 24.2068 18.9793 24.2068 18.9793C24.2068 18.9793 24.0102 20.4237 23.4532 21.062C22.7678 21.8286 21.9934 21.8966 21.6091 21.9303C21.5893 21.932 21.5705 21.9336 21.5529 21.9352C18.899 22.1704 14.9017 22.1704 14.9017 22.1704C14.9017 22.1704 9.95435 22.1369 8.44723 21.969C8.36714 21.95 8.26852 21.9357 8.15637 21.9196C7.67209 21.8499 6.93559 21.7438 6.3503 21.062C5.79334 20.4237 5.59674 18.9793 5.59674 18.9793C5.59674 18.9793 5.40015 17.2997 5.40015 15.5865V14.0077C5.40015 12.2945 5.59674 10.5813 5.59674 10.5813C5.59674 10.5813 5.76053 9.13692 6.3503 8.49866C7.0358 7.73197 7.81019 7.66402 8.19441 7.6303C8.2142 7.62856 8.23296 7.62691 8.25063 7.62527C10.9045 7.42374 14.9017 7.39014 14.9017 7.39014C14.9017 7.39014 18.899 7.42374 21.5529 7.62527C21.5803 7.62782 21.6103 7.63017 21.6427 7.63272C22.0371 7.66371 22.7871 7.72264 23.4532 8.49866ZM12.6075 18.677V11.3876L18.8327 15.1163L12.6075 18.677Z" fill="#0099A8"/>
</svg>
