<svg width="31" height="30" viewBox="0 0 31 30" fill="none" xmlns="http://www.w3.org/2000/svg">
<path fill-rule="evenodd" clip-rule="evenodd" d="M19.4462 4.92676H11.4808C8.24354 4.92676 5.60986 7.56043 5.60986 10.7977V18.7631C5.60986 22.0004 8.24354 24.6341 11.4808 24.6341H19.4462C22.6835 24.6341 25.3172 22.0004 25.3172 18.7631V10.7977C25.3172 7.56043 22.6834 4.92676 19.4462 4.92676ZM23.3344 18.7633C23.3344 20.9107 21.5935 22.6516 19.446 22.6516H11.4805C9.33303 22.6516 7.59215 20.9107 7.59215 18.7633V10.7978C7.59215 8.65027 9.33303 6.90941 11.4805 6.90941H19.446C21.5935 6.90941 23.3344 8.65027 23.3344 10.7978V18.7633ZM10.3683 14.7805C10.3683 11.9701 12.6548 9.68354 15.4652 9.68354C18.2758 9.68354 20.5623 11.97 20.5623 14.7805C20.5623 17.591 18.2758 19.8775 15.4652 19.8775C12.6548 19.8775 10.3683 17.5909 10.3683 14.7805ZM15.4627 17.8952C13.7426 17.8952 12.3482 16.5007 12.3482 14.7807C12.3482 13.0606 13.7426 11.6662 15.4627 11.6662C17.1827 11.6662 18.577 13.0606 18.577 14.7807C18.577 16.5007 17.1826 17.8952 15.4627 17.8952ZM20.5701 10.9432C21.2445 10.9432 21.7914 10.3964 21.7914 9.72182C21.7914 9.04729 21.2445 8.50047 20.5701 8.50047C19.8955 8.50047 19.3487 9.04729 19.3487 9.72182C19.3487 10.3964 19.8955 10.9432 20.5701 10.9432Z" fill="#0099A8"/>
</svg>
